<mxfile host="app.diagrams.net" agent="Mozilla/5.0 (Windows NT 10.0; Win64; x64) AppleWebKit/537.36 (KHTML, like Gecko) Chrome/135.0.0.0 Safari/537.36" version="26.2.12">
  <diagram name="Page-1" id="zA3kEuPd9NCNwCESQ-Pc">
    <mxGraphModel>
      <root>
        <mxCell id="0" />
        <mxCell id="1" parent="0" />
        <mxCell id="2" value="Microservices" style="whiteSpace=wrap;strokeWidth=2;" vertex="1" parent="1">
          <mxGeometry x="8" y="261" width="772" height="231" as="geometry" />
        </mxCell>
        <mxCell id="3" value="User Interface" style="whiteSpace=wrap;strokeWidth=2;" vertex="1" parent="1">
          <mxGeometry x="598" y="8" width="162" height="54" as="geometry" />
        </mxCell>
        <mxCell id="4" value="Application Server" style="whiteSpace=wrap;strokeWidth=2;" vertex="1" parent="1">
          <mxGeometry x="584" y="135" width="191" height="54" as="geometry" />
        </mxCell>
        <mxCell id="5" value="Database" style="whiteSpace=wrap;strokeWidth=2;" vertex="1" parent="1">
          <mxGeometry x="285" y="413" width="126" height="54" as="geometry" />
        </mxCell>
        <mxCell id="6" value="Storage Service" style="whiteSpace=wrap;strokeWidth=2;" vertex="1" parent="1">
          <mxGeometry x="262" y="565" width="171" height="54" as="geometry" />
        </mxCell>
        <mxCell id="7" value="Backup Service" style="whiteSpace=wrap;strokeWidth=2;" vertex="1" parent="1">
          <mxGeometry x="264" y="691" width="168" height="54" as="geometry" />
        </mxCell>
        <mxCell id="8" value="Authentication Service" style="whiteSpace=wrap;strokeWidth=2;" vertex="1" parent="1">
          <mxGeometry x="836" y="286" width="223" height="54" as="geometry" />
        </mxCell>
        <mxCell id="9" value="User Service" style="whiteSpace=wrap;strokeWidth=2;" vertex="1" parent="1">
          <mxGeometry x="168" y="286" width="148" height="54" as="geometry" />
        </mxCell>
        <mxCell id="10" value="Product Service" style="whiteSpace=wrap;strokeWidth=2;" vertex="1" parent="1">
          <mxGeometry x="367" y="286" width="171" height="54" as="geometry" />
        </mxCell>
        <mxCell id="11" value="Order Service" style="whiteSpace=wrap;strokeWidth=2;" vertex="1" parent="1">
          <mxGeometry x="588" y="286" width="157" height="54" as="geometry" />
        </mxCell>
        <mxCell id="12" value="Interacts with" style="curved=1;startArrow=none;endArrow=block;exitX=0.33;exitY=1;entryX=0.35;entryY=-0.01;" edge="1" parent="1" source="3" target="4">
          <mxGeometry relative="1" as="geometry">
            <Array as="points">
              <mxPoint x="615" y="98" />
            </Array>
          </mxGeometry>
        </mxCell>
        <mxCell id="13" value="Requests Data" style="curved=1;startArrow=none;endArrow=block;exitX=0;exitY=0.68;entryX=0;entryY=0.22;" edge="1" parent="1" source="4" target="5">
          <mxGeometry relative="1" as="geometry">
            <Array as="points">
              <mxPoint x="81" y="225" />
              <mxPoint x="81" y="377" />
            </Array>
          </mxGeometry>
        </mxCell>
        <mxCell id="14" value="Sends Response" style="curved=1;startArrow=none;endArrow=block;exitX=0.64;exitY=-0.01;entryX=0.67;entryY=1;" edge="1" parent="1" source="4" target="3">
          <mxGeometry relative="1" as="geometry">
            <Array as="points">
              <mxPoint x="744" y="98" />
            </Array>
          </mxGeometry>
        </mxCell>
        <mxCell id="15" value="Stores Data" style="curved=1;startArrow=none;endArrow=block;exitX=0.5;exitY=1;entryX=0.5;entryY=-0.01;" edge="1" parent="1" source="5" target="6">
          <mxGeometry relative="1" as="geometry">
            <Array as="points" />
          </mxGeometry>
        </mxCell>
        <mxCell id="16" value="Backup &amp; Restore" style="curved=1;startArrow=none;endArrow=block;exitX=0.5;exitY=0.99;entryX=0.5;entryY=0.01;" edge="1" parent="1" source="6" target="7">
          <mxGeometry relative="1" as="geometry">
            <Array as="points" />
          </mxGeometry>
        </mxCell>
        <mxCell id="17" value="Authenticates" style="curved=1;startArrow=none;endArrow=block;exitX=0.79;exitY=0.99;entryX=0.17;entryY=0.01;" edge="1" parent="1" source="4" target="8">
          <mxGeometry relative="1" as="geometry">
            <Array as="points">
              <mxPoint x="808" y="225" />
              <mxPoint x="808" y="261" />
            </Array>
          </mxGeometry>
        </mxCell>
        <mxCell id="18" value="Generates Token" style="curved=1;startArrow=none;endArrow=block;exitX=0.49;exitY=0.01;entryX=1;entryY=0.92;" edge="1" parent="1" source="8" target="4">
          <mxGeometry relative="1" as="geometry">
            <Array as="points">
              <mxPoint x="942" y="261" />
              <mxPoint x="942" y="225" />
            </Array>
          </mxGeometry>
        </mxCell>
        <mxCell id="19" value="Validates Token" style="curved=1;startArrow=none;endArrow=block;exitX=0.81;exitY=0.01;entryX=1;entryY=0.77;" edge="1" parent="1" source="8" target="4">
          <mxGeometry relative="1" as="geometry">
            <Array as="points">
              <mxPoint x="1081" y="261" />
              <mxPoint x="1081" y="225" />
            </Array>
          </mxGeometry>
        </mxCell>
        <mxCell id="20" value="Manages Users" style="curved=1;startArrow=none;endArrow=block;exitX=0.5;exitY=1.01;entryX=0.14;entryY=0;" edge="1" parent="1" source="9" target="5">
          <mxGeometry relative="1" as="geometry">
            <Array as="points">
              <mxPoint x="243" y="377" />
            </Array>
          </mxGeometry>
        </mxCell>
        <mxCell id="21" value="Manages Products" style="curved=1;startArrow=none;endArrow=block;exitX=0.5;exitY=1.01;entryX=0.85;entryY=0;" edge="1" parent="1" source="10" target="5">
          <mxGeometry relative="1" as="geometry">
            <Array as="points">
              <mxPoint x="452" y="377" />
            </Array>
          </mxGeometry>
        </mxCell>
        <mxCell id="22" value="Handles Orders" style="curved=1;startArrow=none;endArrow=block;exitX=0.5;exitY=1.01;entryX=0.99;entryY=0.27;" edge="1" parent="1" source="11" target="5">
          <mxGeometry relative="1" as="geometry">
            <Array as="points">
              <mxPoint x="667" y="377" />
            </Array>
          </mxGeometry>
        </mxCell>
        <mxCell id="23" value="Calls Microservices" style="curved=1;startArrow=none;endArrow=block;exitX=0;exitY=0.75;entryX=0.5;entryY=0.01;" edge="1" parent="1" source="4" target="9">
          <mxGeometry relative="1" as="geometry">
            <Array as="points">
              <mxPoint x="243" y="225" />
            </Array>
          </mxGeometry>
        </mxCell>
        <mxCell id="24" value="Calls Microservices" style="curved=1;startArrow=none;endArrow=block;exitX=0;exitY=0.99;entryX=0.5;entryY=0.01;" edge="1" parent="1" source="4" target="10">
          <mxGeometry relative="1" as="geometry">
            <Array as="points">
              <mxPoint x="452" y="225" />
            </Array>
          </mxGeometry>
        </mxCell>
        <mxCell id="25" value="Calls Microservices" style="curved=1;startArrow=none;endArrow=block;exitX=0.47;exitY=0.99;entryX=0.5;entryY=0.01;" edge="1" parent="1" source="4" target="11">
          <mxGeometry relative="1" as="geometry">
            <Array as="points">
              <mxPoint x="667" y="225" />
            </Array>
          </mxGeometry>
        </mxCell>
      </root>
    </mxGraphModel>
  </diagram>
</mxfile>
